<svg xmlns="http://www.w3.org/2000/svg" viewBox="0 0 26.29 31.68"><defs><style>.cls-1{fill:#eb1de7;}.cls-2{fill:#16dedb;}</style></defs><g id="Layer_2" data-name="Layer 2"><g id="Layer_1-2" data-name="Layer 1"><path class="cls-1" d="M24.05,15.67C24,20.79,24,25.87,24,31H.05v-14c0-1.2,0-2.4,0-3.6a.59.59,0,0,1,.25-.5,2.36,2.36,0,0,1,.8-.38,7.71,7.71,0,0,1,1.78-.3,11.49,11.49,0,0,1,2.49.11,4.25,4.25,0,0,1,1.16.32,2.27,2.27,0,0,1,.44.27.53.53,0,0,1,.2.45l0,8.36v.11h0l0,0,.06-.05,7.79-5.82h.06c0,.17,0,.33,0,.5V22Z"/><path class="cls-2" d="M25,16.39c0,5.12,0,10.2,0,15.29H1a.71.71,0,0,1,0-.14Q1,24.6,1,17.65v-3.6a.58.58,0,0,1,.24-.5,2.45,2.45,0,0,1,.8-.38,7.7,7.7,0,0,1,1.79-.3A11.55,11.55,0,0,1,6.33,13a4.29,4.29,0,0,1,1.15.32,2,2,0,0,1,.44.27.52.52,0,0,1,.21.45l0,8.36v.11h.05l0,0,.07-.05,7.78-5.82h.06c0,.17,0,.33,0,.5v5.63Z"/><path class="cls-1" d="M19.91,6.42a1.51,1.51,0,0,1-.66-.14,2.26,2.26,0,0,1-1.37-2,1.61,1.61,0,0,1,.19-.83,2.58,2.58,0,0,1,1.07-1.1,1.3,1.3,0,0,1,.52-.14.25.25,0,0,0,.12,0,1.39,1.39,0,0,1,.81,0,2.18,2.18,0,0,1,1.49,1.34,2.13,2.13,0,0,1-1.21,2.67A3.16,3.16,0,0,1,19.91,6.42Z"/><path class="cls-1" d="M2.08,3.52A1.9,1.9,0,0,1,4,5.07,2,2,0,0,1,2.26,7.43,1.78,1.78,0,0,1,.63,6.85,2,2,0,0,1,.11,4.76a1.82,1.82,0,0,1,1-1.11,2.47,2.47,0,0,1,.54-.11C1.8,3.52,1.93,3.53,2.08,3.52Z"/><path class="cls-1" d="M11.67,8.43a2,2,0,0,1-1.5,1.9A1.94,1.94,0,0,1,8.58,6.86a1.38,1.38,0,0,1,.51-.23l.19,0a1.49,1.49,0,0,1,1,.06A2,2,0,0,1,11.6,8,3.11,3.11,0,0,1,11.67,8.43Z"/><path class="cls-2" d="M6.24,7.36A2,2,0,0,1,4.36,5.49a1.44,1.44,0,0,1,0-.46,1.9,1.9,0,0,1,3.75.59A1.84,1.84,0,0,1,6.78,7.26,4.68,4.68,0,0,1,6.24,7.36Z"/><path class="cls-2" d="M13.68,9.87a1.88,1.88,0,0,1-1.85-1.74,1.83,1.83,0,0,1,1.7-1.93,1.78,1.78,0,0,1,2,1.79A1.82,1.82,0,0,1,13.68,9.87Z"/><path class="cls-2" d="M11.62,4.69A1.63,1.63,0,0,1,10,6.34,1.68,1.68,0,0,1,8.32,4.67,1.68,1.68,0,0,1,9.93,3.06,1.63,1.63,0,0,1,11.62,4.69Z"/><path class="cls-2" d="M.91,9.1A1.64,1.64,0,0,1,3.62,7.92a1.64,1.64,0,0,1-.46,2.72A1.55,1.55,0,0,1,1,9.59,3.86,3.86,0,0,1,.91,9.1Z"/><path class="cls-2" d="M16.26,6.61A1.61,1.61,0,0,1,14.69,5a1.6,1.6,0,0,1,1.57-1.52A1.53,1.53,0,0,1,17.85,5,1.57,1.57,0,0,1,16.26,6.61Z"/><path class="cls-2" d="M5.83,10.89a3.34,3.34,0,0,1-.43-.1,1.58,1.58,0,0,1-.93-1.86,1.48,1.48,0,0,1,1.14-1A1.5,1.5,0,0,1,6.52,8a1.43,1.43,0,0,1,.87,1.47A1.6,1.6,0,0,1,5.83,10.89Z"/><path class="cls-1" d="M13.18,2.81a1.4,1.4,0,0,1,1.49,1.43A1.44,1.44,0,0,1,13.18,5.7a1.47,1.47,0,0,1-1.43-1.45A1.48,1.48,0,0,1,13.18,2.81Z"/><path class="cls-2" d="M13.29,1.22a1.29,1.29,0,0,1-.13.58,1.25,1.25,0,0,1-2.34-.37,1.26,1.26,0,0,1,1-1.4A1.21,1.21,0,0,1,13.29,1.22Z"/><path class="cls-1" d="M15.61,2.47a1.27,1.27,0,0,1-1.24-1.23A1.28,1.28,0,0,1,15.61,0a1.2,1.2,0,0,1,1.25,1.23A1.24,1.24,0,0,1,15.61,2.47Z"/><path class="cls-1" d="M25.11,2.85a1.22,1.22,0,0,1-1.23-1.21A1.25,1.25,0,0,1,25.05.44a1.19,1.19,0,0,1,1.24,1.2A1.2,1.2,0,0,1,25.11,2.85Z"/><path class="cls-1" d="M8.11.93a1,1,0,0,1,1,1.38A1.09,1.09,0,0,1,8,3a1,1,0,0,1-.87-.89,1.41,1.41,0,0,1,0-.46A.85.85,0,0,1,7.87,1Z"/><path class="cls-2" d="M22.59,3.06a1,1,0,0,1-1-1,1,1,0,0,1,1-1,1,1,0,1,1,0,2Z"/><path class="cls-2" d="M23.72,3.35a.89.89,0,0,1,1,.91.91.91,0,0,1-.92.9.91.91,0,0,1,0-1.81Z"/><path class="cls-2" d="M18.71,1.82a.8.8,0,0,1-.83.8.82.82,0,0,1-.82-.81A.88.88,0,0,1,17.88,1,.8.8,0,0,1,18.71,1.82Z"/><path class="cls-2" d="M4.82,1.69a.77.77,0,0,1,.82.81A.81.81,0,0,1,4,2.47.8.8,0,0,1,4.82,1.69Z"/><path class="cls-1" d="M19.37,8.11a.76.76,0,0,1-.75.77.75.75,0,0,1-.73-.76.73.73,0,0,1,.75-.73A.7.7,0,0,1,19.37,8.11Z"/><path class="cls-2" d="M21.14.87a.74.74,0,0,1-.71.73.77.77,0,0,1-.75-.69.79.79,0,0,1,.71-.75A.72.72,0,0,1,21.14.87Z"/></g></g></svg>